<?xml version="1.0" standalone="no"?>
<!DOCTYPE svg PUBLIC "-//W3C//DTD SVG 20010904//EN"
 "http://www.w3.org/TR/2001/REC-SVG-20010904/DTD/svg10.dtd">
<svg version="1.0" xmlns="http://www.w3.org/2000/svg"
 width="1200.000000pt" height="1200.000000pt" viewBox="0 0 1200.000000 1200.000000"
 preserveAspectRatio="xMidYMid meet">

<g transform="translate(0.000000,1200.000000) scale(0.100000,-0.100000)"
fill="#000000" stroke="none">
<path d="M5775 10950 c-1055 -48 -2058 -438 -2890 -1124 -144 -119 -499 -472
-614 -611 -481 -580 -806 -1211 -990 -1926 -173 -668 -199 -1386 -75 -2069
244 -1346 1038 -2521 2202 -3260 828 -525 1847 -794 2820 -742 356 19 642 61
967 144 1559 394 2829 1542 3383 3059 336 917 384 1941 136 2889 -184 702
-509 1332 -985 1905 -115 139 -470 492 -614 611 -951 785 -2120 1178 -3340
1124z m605 -481 c2028 -168 3698 -1751 3979 -3770 34 -249 44 -424 38 -708 -8
-375 -42 -641 -128 -984 -369 -1473 -1502 -2672 -2954 -3126 -1871 -584 -3898
136 -4980 1769 -394 594 -627 1230 -711 1940 -21 185 -30 629 -15 816 32 397
103 745 226 1102 623 1811 2350 3021 4250 2975 94 -2 226 -9 295 -14z"/>
<path d="M7010 9290 c-180 -25 -364 -81 -529 -163 -82 -40 -106 -48 -109 -37
-2 8 -31 41 -62 72 -82 80 -122 91 -333 86 -153 -3 -165 -5 -213 -30 -60 -32
-118 -93 -148 -157 l-21 -46 -5 -2335 c-6 -2620 2 -2365 -80 -2536 -212 -441
-733 -596 -1136 -339 -126 81 -234 207 -299 349 -56 121 -65 186 -65 449 0
237 -7 312 -36 372 -27 57 -82 113 -142 142 -56 27 -61 28 -227 28 -144 0
-178 -3 -220 -19 -65 -25 -137 -94 -166 -159 -23 -49 -24 -66 -27 -277 -5
-325 17 -504 89 -713 164 -478 548 -866 1016 -1026 185 -63 265 -75 503 -75
185 0 229 3 317 22 306 67 566 203 783 409 262 249 408 519 488 903 14 66 16
293 22 1840 l5 1765 23 73 c90 291 315 513 590 579 91 22 266 21 357 -2 239
-60 437 -224 539 -447 37 -81 66 -185 66 -239 0 -55 28 -148 58 -192 37 -55
102 -103 164 -122 80 -23 298 -21 380 5 81 25 147 81 182 153 35 72 40 119 27
239 -44 381 -194 692 -465 964 -236 235 -494 375 -821 444 -114 24 -395 35
-505 20z"/>
</g>
</svg>
