<svg width="100" height="100" viewBox="0 0 100 100" fill="none" xmlns="http://www.w3.org/2000/svg">
<path fill-rule="evenodd" clip-rule="evenodd" d="M50.0001 6.25002C39.6134 6.25141 29.5661 9.94808 21.6554 16.6787C13.7446 23.4094 8.48652 32.735 6.82165 42.9873C5.15677 53.2396 7.19374 63.7499 12.5682 72.6379C17.9426 81.526 26.3039 88.212 36.1563 91.5C38.3438 91.9063 39.2813 90.5625 39.2813 89.4063V81.9688C27.1251 84.5938 24.5626 76.0938 24.5626 76.0938C23.7077 73.4151 21.9086 71.1384 19.5001 69.6875C15.5313 67 19.8126 67.0313 19.8126 67.0313C21.1988 67.2271 22.522 67.7372 23.681 68.5225C24.8401 69.3078 25.8043 70.3476 26.5001 71.5625C27.7105 73.7336 29.7336 75.335 32.1245 76.0148C34.5155 76.6946 37.0785 76.397 39.2501 75.1875C39.4265 72.9702 40.404 70.893 42.0001 69.3438C32.3126 68.2188 22.0938 64.4688 22.0938 47.7188C22.023 43.3684 23.6351 39.1589 26.5938 35.9688C25.2546 32.2006 25.4112 28.0624 27.0313 24.4063C27.0313 24.4063 30.6876 23.2188 39.0626 28.875C46.2234 26.9217 53.7767 26.9217 60.9376 28.875C69.2813 23.2188 72.9376 24.4063 72.9376 24.4063C74.5577 28.0624 74.7142 32.2006 73.3751 35.9688C76.3337 39.1589 77.9459 43.3684 77.8751 47.7188C77.8751 64.5313 67.6563 68.2188 57.9063 69.3125C58.9508 70.3711 59.7562 71.6413 60.2683 73.0375C60.7804 74.4337 60.9873 75.9234 60.8751 77.4063V89.4063C60.8751 90.8438 61.6563 91.9375 64.0001 91.5C73.8654 88.2079 82.2354 81.509 87.609 72.6046C92.9826 63.7002 95.0083 53.1727 93.3229 42.91C91.6376 32.6473 86.3513 23.3206 78.4121 16.6024C70.473 9.88427 60.4002 6.21409 50.0001 6.25002Z" fill="#151415"/>
</svg>
