<svg width="26" height="26" viewBox="0 0 26 26" fill="none" xmlns="http://www.w3.org/2000/svg">
<g clip-path="url(#clip0)">
<path fill-rule="evenodd" clip-rule="evenodd" d="M11.3735 4.00007C8.67297 4.00043 6.06067 4.96156 4.00387 6.71154C1.94708 8.46151 0.579972 10.8862 0.147105 13.5518C-0.285763 16.2174 0.243848 18.95 1.6412 21.2609C3.03855 23.5718 5.21248 25.3102 7.77412 26.1651C8.34287 26.2707 8.58662 25.9213 8.58662 25.6207V23.6869C5.42599 24.3694 4.75974 22.1594 4.75974 22.1594C4.53749 21.463 4.0697 20.871 3.44349 20.4938C2.41162 19.7951 3.52474 19.8032 3.52474 19.8032C3.88517 19.8541 4.2292 19.9867 4.53055 20.1909C4.83189 20.3951 5.08259 20.6654 5.26349 20.9813C5.57821 21.5458 6.10422 21.9622 6.72586 22.1389C7.3475 22.3157 8.01388 22.2383 8.57849 21.9238C8.62437 21.3473 8.87852 20.8072 9.29349 20.4044C6.77474 20.1119 4.11787 19.1369 4.11787 14.7819C4.09945 13.6509 4.51861 12.5564 5.28787 11.7269C4.93968 10.7472 4.98039 9.6713 5.40162 8.72069C5.40162 8.72069 6.35224 8.41194 8.52974 9.88257C10.3916 9.37471 12.3554 9.37471 14.2172 9.88257C16.3866 8.41194 17.3372 8.72069 17.3372 8.72069C17.7585 9.6713 17.7992 10.7472 17.451 11.7269C18.2202 12.5564 18.6394 13.6509 18.621 14.7819C18.621 19.1532 15.9641 20.1119 13.4291 20.3963C13.7007 20.6716 13.9101 21.0018 14.0432 21.3648C14.1764 21.7278 14.2302 22.1151 14.201 22.5007V25.6207C14.201 25.9944 14.4041 26.2788 15.0135 26.1651C17.5785 25.3091 19.7547 23.5674 21.1518 21.2523C22.5489 18.9371 23.0756 16.2 22.6374 13.5317C22.1992 10.8633 20.8248 8.43841 18.7606 6.69169C16.6965 4.94497 14.0775 3.99073 11.3735 4.00007V4.00007Z" fill="#151415"/>
</g>
<defs>
<clipPath id="clip0">
<rect width="26" height="26" fill="white"/>
</clipPath>
</defs>
</svg>
