<svg width="26" height="26" viewBox="0 0 26 26" fill="none" xmlns="http://www.w3.org/2000/svg">
<path d="M8.44996 2.16666H17.55C21.0166 2.16666 23.8333 4.98332 23.8333 8.44999V17.55C23.8333 19.2164 23.1713 20.8146 21.9929 21.993C20.8146 23.1713 19.2164 23.8333 17.55 23.8333H8.44996C4.98329 23.8333 2.16663 21.0167 2.16663 17.55V8.44999C2.16663 6.78355 2.82862 5.18536 4.00697 4.007C5.18533 2.82865 6.78352 2.16666 8.44996 2.16666V2.16666ZM8.23329 4.33332C7.19895 4.33332 6.20697 4.74421 5.47558 5.47561C4.74418 6.207 4.33329 7.19898 4.33329 8.23332V17.7667C4.33329 19.9225 6.07746 21.6667 8.23329 21.6667H17.7666C18.801 21.6667 19.793 21.2558 20.5243 20.5244C21.2557 19.793 21.6666 18.801 21.6666 17.7667V8.23332C21.6666 6.07749 19.9225 4.33332 17.7666 4.33332H8.23329ZM18.6875 5.95832C19.0466 5.95832 19.391 6.10099 19.645 6.35495C19.899 6.6089 20.0416 6.95334 20.0416 7.31249C20.0416 7.67164 19.899 8.01607 19.645 8.27003C19.391 8.52399 19.0466 8.66666 18.6875 8.66666C18.3283 8.66666 17.9839 8.52399 17.7299 8.27003C17.476 8.01607 17.3333 7.67164 17.3333 7.31249C17.3333 6.95334 17.476 6.6089 17.7299 6.35495C17.9839 6.10099 18.3283 5.95832 18.6875 5.95832ZM13 7.58332C14.4365 7.58332 15.8143 8.15401 16.8301 9.16983C17.8459 10.1856 18.4166 11.5634 18.4166 13C18.4166 14.4366 17.8459 15.8143 16.8301 16.8302C15.8143 17.846 14.4365 18.4167 13 18.4167C11.5634 18.4167 10.1856 17.846 9.1698 16.8302C8.15398 15.8143 7.58329 14.4366 7.58329 13C7.58329 11.5634 8.15398 10.1856 9.1698 9.16983C10.1856 8.15401 11.5634 7.58332 13 7.58332V7.58332ZM13 9.74999C12.138 9.74999 11.3114 10.0924 10.7019 10.7019C10.0924 11.3114 9.74996 12.138 9.74996 13C9.74996 13.8619 10.0924 14.6886 10.7019 15.2981C11.3114 15.9076 12.138 16.25 13 16.25C13.8619 16.25 14.6886 15.9076 15.2981 15.2981C15.9076 14.6886 16.25 13.8619 16.25 13C16.25 12.138 15.9076 11.3114 15.2981 10.7019C14.6886 10.0924 13.8619 9.74999 13 9.74999Z" fill="#151415"/>
</svg>
