<svg width="26" height="26" viewBox="0 0 26 26" fill="none" xmlns="http://www.w3.org/2000/svg">
<path d="M24.3317 6.50001C23.4975 6.87918 22.5983 7.12834 21.6667 7.24751C22.62 6.67334 23.3567 5.76334 23.7033 4.66918C22.8042 5.21084 21.8075 5.59001 20.7567 5.80668C19.9008 4.87501 18.6983 4.33334 17.3333 4.33334C14.7875 4.33334 12.7075 6.41334 12.7075 8.98084C12.7075 9.34918 12.7508 9.70668 12.8267 10.0425C8.97 9.84751 5.53584 7.99501 3.25 5.18918C2.84917 5.87168 2.62167 6.67334 2.62167 7.51834C2.62167 9.13251 3.43417 10.5625 4.69084 11.375C3.92167 11.375 3.20667 11.1583 2.57834 10.8333V10.8658C2.57834 13.1192 4.18167 15.0042 6.305 15.4267C5.62329 15.6132 4.9076 15.6392 4.21417 15.5025C4.50841 16.426 5.08467 17.2341 5.86194 17.8132C6.63921 18.3922 7.5784 18.7132 8.5475 18.7308C6.90477 20.0313 4.8685 20.7343 2.77333 20.7242C2.405 20.7242 2.03667 20.7025 1.66833 20.6592C3.72667 21.9808 6.175 22.75 8.79667 22.75C17.3333 22.75 22.0242 15.665 22.0242 9.52251C22.0242 9.31668 22.0242 9.12168 22.0133 8.91584C22.9233 8.26584 23.7033 7.44251 24.3317 6.50001V6.50001Z" fill="#151415"/>
</svg>
