<svg width="100" height="100" viewBox="0 0 100 100" fill="none" xmlns="http://www.w3.org/2000/svg">
<path d="M87.5 18.75H12.5C10.8424 18.75 9.25268 19.4085 8.08058 20.5806C6.90848 21.7527 6.25 23.3424 6.25 25V75C6.25 76.6576 6.90848 78.2473 8.08058 79.4194C9.25268 80.5915 10.8424 81.25 12.5 81.25H87.5C89.1576 81.25 90.7473 80.5915 91.9194 79.4194C93.0915 78.2473 93.75 76.6576 93.75 75V25C93.75 23.3424 93.0915 21.7527 91.9194 20.5806C90.7473 19.4085 89.1576 18.75 87.5 18.75ZM80.625 25L50 46.1875L19.375 25H80.625ZM12.5 75V27.8438L48.2188 52.5625C48.7419 52.9254 49.3633 53.1199 50 53.1199C50.6367 53.1199 51.2581 52.9254 51.7812 52.5625L87.5 27.8438V75H12.5Z" fill="#151415"/>
</svg>
