<svg width="100" height="100" viewBox="0 0 100 100" fill="none" xmlns="http://www.w3.org/2000/svg">
<path d="M32.4999 8.33334H67.4999C80.8333 8.33334 91.6666 19.1667 91.6666 32.5V67.5C91.6666 73.9094 89.1205 80.0563 84.5883 84.5884C80.0562 89.1206 73.9093 91.6667 67.4999 91.6667H32.4999C19.1666 91.6667 8.33325 80.8334 8.33325 67.5V32.5C8.33325 26.0906 10.8794 19.9437 15.4115 15.4116C19.9436 10.8795 26.0905 8.33334 32.4999 8.33334ZM31.6666 16.6667C27.6883 16.6667 23.873 18.247 21.06 21.0601C18.2469 23.8731 16.6666 27.6884 16.6666 31.6667V68.3333C16.6666 76.625 23.3749 83.3334 31.6666 83.3334H68.3333C72.3115 83.3334 76.1268 81.753 78.9399 78.94C81.7529 76.1269 83.3333 72.3116 83.3333 68.3333V31.6667C83.3333 23.375 76.6249 16.6667 68.3333 16.6667H31.6666ZM71.8749 22.9167C73.2563 22.9167 74.581 23.4654 75.5578 24.4422C76.5345 25.4189 77.0833 26.7437 77.0833 28.125C77.0833 29.5063 76.5345 30.8311 75.5578 31.8079C74.581 32.7846 73.2563 33.3333 71.8749 33.3333C70.4936 33.3333 69.1688 32.7846 68.1921 31.8079C67.2153 30.8311 66.6666 29.5063 66.6666 28.125C66.6666 26.7437 67.2153 25.4189 68.1921 24.4422C69.1688 23.4654 70.4936 22.9167 71.8749 22.9167ZM49.9999 29.1667C55.5253 29.1667 60.8243 31.3616 64.7313 35.2686C68.6383 39.1756 70.8333 44.4747 70.8333 50C70.8333 55.5254 68.6383 60.8244 64.7313 64.7314C60.8243 68.6384 55.5253 70.8333 49.9999 70.8333C44.4746 70.8333 39.1755 68.6384 35.2685 64.7314C31.3615 60.8244 29.1666 55.5254 29.1666 50C29.1666 44.4747 31.3615 39.1756 35.2685 35.2686C39.1755 31.3616 44.4746 29.1667 49.9999 29.1667ZM49.9999 37.5C46.6847 37.5 43.5053 38.817 41.1611 41.1612C38.8169 43.5054 37.4999 46.6848 37.4999 50C37.4999 53.3152 38.8169 56.4946 41.1611 58.8389C43.5053 61.1831 46.6847 62.5 49.9999 62.5C53.3151 62.5 56.4946 61.1831 58.8388 58.8389C61.183 56.4946 62.4999 53.3152 62.4999 50C62.4999 46.6848 61.183 43.5054 58.8388 41.1612C56.4946 38.817 53.3151 37.5 49.9999 37.5Z" fill="#151415"/>
</svg>
