<svg width="100" height="100" viewBox="0 0 100 100" fill="none" xmlns="http://www.w3.org/2000/svg">
<path d="M81.9062 12.5H18.0938C16.6398 12.4912 15.2401 13.0522 14.1946 14.0626C13.1491 15.0731 12.5408 16.4528 12.5 17.9062V81.875C12.5328 83.3311 13.1386 84.7155 14.1859 85.7276C15.2332 86.7398 16.6374 87.2981 18.0938 87.2812H81.9062C83.3626 87.2981 84.7668 86.7398 85.8141 85.7276C86.8614 84.7155 87.4672 83.3311 87.5 81.875V17.9062C87.4592 16.4528 86.8509 15.0731 85.8054 14.0626C84.7598 13.0522 83.3602 12.4912 81.9062 12.5ZM34.7187 76.2812H23.7188V40.625H34.7187V76.2812ZM29.3438 35.6562C27.6549 35.6567 26.0328 34.9967 24.824 33.8171C23.6153 32.6376 22.9158 31.0321 22.875 29.3437C22.8444 28.486 22.9908 27.6312 23.3051 26.8325C23.6193 26.0339 24.0947 25.3085 24.7016 24.7016C25.3085 24.0947 26.0339 23.6193 26.8325 23.3051C27.6312 22.9908 28.486 22.8444 29.3438 22.875C30.9776 22.9887 32.5075 23.7181 33.6247 24.9157C34.7419 26.1134 35.3632 27.6903 35.3632 29.3281C35.3632 30.9659 34.7419 32.5428 33.6247 33.7405C32.5075 34.9382 30.9776 35.6675 29.3438 35.7812V35.6562ZM76.5 76.0625H65.625V58.625C65.625 54.4687 65.625 49.0625 59.8125 49.0625C54 49.0625 53.125 53.625 53.125 58.2187V75.875H42V40.625H52.375V45.3125H52.5938C53.6572 43.4657 55.2078 41.9467 57.0761 40.9216C58.9444 39.8965 61.0586 39.4047 63.1875 39.5C74.4062 39.5 76.5 47 76.5 56.5312V76.0625Z" fill="#151415"/>
</svg>
