<svg width="100" height="100" viewBox="0 0 100 100" fill="none" xmlns="http://www.w3.org/2000/svg">
<path d="M93.5834 25C90.3751 26.4584 86.9167 27.4167 83.3334 27.875C87.0001 25.6667 89.8334 22.1667 91.1668 17.9584C87.7084 20.0417 83.8751 21.5 79.8334 22.3334C76.5417 18.75 71.9168 16.6667 66.6668 16.6667C56.8751 16.6667 48.8751 24.6667 48.8751 34.5417C48.8751 35.9584 49.0418 37.3334 49.3334 38.625C34.5001 37.875 21.2917 30.75 12.5001 19.9584C10.9584 22.5834 10.0834 25.6667 10.0834 28.9167C10.0834 35.125 13.2084 40.625 18.0417 43.75C15.0834 43.75 12.3334 42.9167 9.91675 41.6667V41.7917C9.91675 50.4584 16.0834 57.7084 24.2501 59.3334C21.6281 60.0509 18.8755 60.1507 16.2084 59.625C17.3401 63.177 19.5565 66.2851 22.546 68.5122C25.5355 70.7394 29.1478 71.9737 32.8751 72.0417C26.5569 77.0435 18.7251 79.7472 10.6667 79.7083C9.25008 79.7083 7.83341 79.625 6.41675 79.4584C14.3334 84.5417 23.7501 87.5 33.8334 87.5C66.6668 87.5 84.7084 60.25 84.7084 36.625C84.7084 35.8334 84.7084 35.0834 84.6667 34.2917C88.1667 31.7917 91.1667 28.625 93.5834 25Z" fill="#151415"/>
</svg>
